# xmcd
#
# Track frame offsets:
#	150
#	12548
#	26949
#	45099
#	58234
#	73489
#	92080
#	109421
#	123524
#	137737
#	150075
#	162029
#	177021
#	178371
#	202750
#	216292
#	229621
#	239251
#	249768
#	265048
#
# Disc length: 3635 seconds
#
# Revision: 0
# Processed by: cddbd v1.5.1PL0 Copyright (c) Steve Scherf et al.
# Submitted via: dBpowerAMP V4.0
#
DISCID=110e3114
DTITLE=Deó Seresteiro - As 20 Mais
DYEAR=1900
DGENRE=
TTITLE0=Forró do Véio Zezo
TTITLE1=Fungadinha no Cangote
TTITLE2=Corpo de Mola
TTITLE3=Molhadinha de Suor
TTITLE4=Tchaka Tchaka na Mutchaka
TTITLE5=ídolo do Sertão
TTITLE6=Os Quatro Vícios do Homem
TTITLE7=Repente do Vaqueiro
TTITLE8=De Mão em Mão
TTITLE9=Mulher Bandida
TTITLE10=Esse Forró tá Muito Bom
TTITLE11=Esse Cara é Bom
TTITLE12=Comeram Tudo Dela
TTITLE13=Vaqueiro Apaixonado
TTITLE14=Amor Com Você
TTITLE15=O Gemidinho
TTITLE16=Pimenta na Bunda
TTITLE17=Certidão de Casamento
TTITLE18=Forró Pente
TTITLE19=Pára Pedro
EXTD=
EXTT0=
EXTT1=
EXTT2=
EXTT3=
EXTT4=
EXTT5=
EXTT6=
EXTT7=
EXTT8=
EXTT9=
EXTT10=
EXTT11=
EXTT12=
EXTT13=
EXTT14=
EXTT15=
EXTT16=
EXTT17=
EXTT18=
EXTT19=
PLAYORDER=
